<svg width="221" height="195" viewBox="0 0 221 195" fill="none" xmlns="http://www.w3.org/2000/svg">
<g filter="url(#filter0_d)">
<path d="M21.0547 150.098C21.0547 150.28 21.0156 150.605 20.9375 151.074C20.8724 151.53 20.6966 152.103 20.4102 152.793C20.1888 153.353 20.013 153.828 19.8828 154.219C19.7526 154.609 19.6745 154.902 19.6484 155.098C19.4141 156.582 19.1862 158.177 18.9648 159.883C18.7565 161.589 18.5221 163.438 18.2617 165.43C18.1966 165.977 18.125 166.549 18.0469 167.148C17.9818 167.734 17.9232 168.288 17.8711 168.809C17.819 169.329 17.7734 169.792 17.7344 170.195C17.7083 170.586 17.6953 170.853 17.6953 170.996C17.6953 171.1 17.7214 171.23 17.7734 171.387C17.8255 171.53 17.8841 171.68 17.9492 171.836C18.0143 171.992 18.0729 172.142 18.125 172.285C18.1771 172.428 18.2031 172.552 18.2031 172.656C18.2031 172.956 18.112 173.255 17.9297 173.555C17.7474 173.854 17.4479 174.147 17.0312 174.434C16.6927 174.681 16.3542 174.87 16.0156 175C15.6771 175.117 15.3385 175.189 15 175.215C14.375 175.215 13.8867 175.059 13.5352 174.746C13.1966 174.434 12.9427 174.062 12.7734 173.633C12.6172 173.203 12.526 172.754 12.5 172.285C12.474 171.816 12.4609 171.426 12.4609 171.113C12.4609 170.488 12.474 169.896 12.5 169.336C12.5391 168.763 12.5911 168.203 12.6562 167.656C12.7604 166.771 12.9102 165.736 13.1055 164.551C13.3008 163.366 13.5091 162.109 13.7305 160.781C13.7695 160.573 13.8281 160.241 13.9062 159.785C13.9974 159.329 14.0951 158.809 14.1992 158.223C14.3164 157.624 14.4336 156.999 14.5508 156.348C14.681 155.684 14.8047 155.052 14.9219 154.453C15.0391 153.854 15.1432 153.32 15.2344 152.852C15.3255 152.37 15.3906 152.012 15.4297 151.777C15.5078 151.348 15.5664 151.016 15.6055 150.781C15.6445 150.547 15.6836 150.332 15.7227 150.137C15.7617 149.928 15.8073 149.701 15.8594 149.453C15.9115 149.206 15.9831 148.861 16.0742 148.418L16.0547 148.457C16.0807 148.249 16.1589 148.021 16.2891 147.773C16.4193 147.513 16.5755 147.272 16.7578 147.051C16.9531 146.816 17.168 146.628 17.4023 146.484C17.6497 146.328 17.8906 146.25 18.125 146.25C18.6719 146.25 19.1341 146.38 19.5117 146.641C19.8893 146.888 20.1888 147.194 20.4102 147.559C20.6445 147.923 20.8073 148.314 20.8984 148.73C21.0026 149.134 21.0547 149.492 21.0547 149.805V150.098ZM55.7617 167.676C55.1628 168.223 54.4792 168.796 53.7109 169.395C52.9557 169.993 52.1354 170.547 51.25 171.055C50.3776 171.549 49.4466 171.96 48.457 172.285C47.4805 172.598 46.4648 172.754 45.4102 172.754C44.4987 172.754 43.6849 172.565 42.9688 172.188C42.2526 171.81 41.6471 171.263 41.1523 170.547C40.6706 169.831 40.2995 168.958 40.0391 167.93C39.7917 166.888 39.668 165.703 39.668 164.375C39.4727 164.727 39.2383 165.098 38.9648 165.488C38.7044 165.866 38.431 166.237 38.1445 166.602C37.8711 166.953 37.6042 167.279 37.3438 167.578C37.0833 167.865 36.8685 168.092 36.6992 168.262C34.8893 170.059 33.1771 171.439 31.5625 172.402C29.9609 173.366 28.418 173.848 26.9336 173.848C26.3867 173.848 25.8984 173.757 25.4688 173.574C25.0391 173.392 24.6745 173.158 24.375 172.871C24.0885 172.585 23.8672 172.266 23.7109 171.914C23.5547 171.549 23.4766 171.191 23.4766 170.84C23.4766 169.824 23.6328 168.776 23.9453 167.695C24.2708 166.615 24.681 165.553 25.1758 164.512C25.6836 163.457 26.2435 162.454 26.8555 161.504C27.4805 160.54 28.099 159.674 28.7109 158.906C29.3099 158.138 29.9284 157.435 30.5664 156.797C31.2044 156.146 31.8294 155.579 32.4414 155.098C33.0664 154.616 33.6654 154.245 34.2383 153.984C34.8112 153.711 35.332 153.574 35.8008 153.574C36.0742 153.574 36.3802 153.639 36.7188 153.77C37.0703 153.887 37.4023 154.03 37.7148 154.199C38.0404 154.368 38.3268 154.544 38.5742 154.727C38.8346 154.896 39.0104 155.033 39.1016 155.137C39.2188 155.267 39.349 155.417 39.4922 155.586C39.6354 155.755 39.7396 155.951 39.8047 156.172C39.9219 155.391 40.0456 154.551 40.1758 153.652C40.319 152.741 40.4492 151.842 40.5664 150.957C40.6966 150.059 40.8073 149.193 40.8984 148.359C41.0026 147.526 41.0742 146.79 41.1133 146.152C41.1784 145.176 41.4258 144.447 41.8555 143.965C42.2852 143.483 42.9688 143.242 43.9062 143.242C44.4531 143.242 44.8763 143.477 45.1758 143.945C45.4883 144.401 45.6445 145.059 45.6445 145.918C45.6445 146.048 45.612 146.354 45.5469 146.836C45.4818 147.318 45.3906 147.917 45.2734 148.633C45.1693 149.336 45.0456 150.13 44.9023 151.016C44.7721 151.888 44.6354 152.786 44.4922 153.711C44.362 154.635 44.2253 155.553 44.082 156.465C43.9518 157.363 43.8281 158.197 43.7109 158.965C43.6068 159.733 43.5221 160.404 43.457 160.977C43.3919 161.549 43.3594 161.96 43.3594 162.207C43.3594 162.533 43.3659 162.93 43.3789 163.398C43.3919 163.854 43.4245 164.336 43.4766 164.844C43.5417 165.339 43.6328 165.833 43.75 166.328C43.8802 166.823 44.0495 167.266 44.2578 167.656C44.4661 168.047 44.7266 168.366 45.0391 168.613C45.3516 168.861 45.7292 168.984 46.1719 168.984C46.8359 168.984 47.4935 168.913 48.1445 168.77C48.8086 168.613 49.4857 168.392 50.1758 168.105C50.8659 167.806 51.582 167.441 52.3242 167.012C53.0664 166.582 53.8542 166.087 54.6875 165.527C54.7135 165.501 54.7656 165.456 54.8438 165.391C54.9349 165.312 55.0391 165.234 55.1562 165.156C55.2734 165.065 55.3971 164.987 55.5273 164.922C55.6706 164.857 55.8008 164.824 55.918 164.824C56.0091 164.824 56.1263 164.922 56.2695 165.117C56.4258 165.299 56.5039 165.56 56.5039 165.898C56.5039 166.185 56.4648 166.478 56.3867 166.777C56.3086 167.077 56.1003 167.376 55.7617 167.676ZM39.2773 159.004C39.3164 158.861 39.3685 158.672 39.4336 158.438C39.5117 158.203 39.5638 157.975 39.5898 157.754C39.3164 158.092 39.0234 158.333 38.7109 158.477C38.4115 158.607 38.0078 158.672 37.5 158.672C37.2396 158.672 37.0117 158.639 36.8164 158.574C36.6341 158.509 36.4714 158.418 36.3281 158.301C36.1849 158.184 36.0547 158.04 35.9375 157.871C35.8203 157.689 35.6966 157.487 35.5664 157.266C35.0065 157.396 34.4206 157.76 33.8086 158.359C33.2096 158.945 32.6107 159.655 32.0117 160.488C31.4258 161.322 30.8659 162.214 30.332 163.164C29.7982 164.115 29.3294 165.02 28.9258 165.879C28.5221 166.725 28.1966 167.474 27.9492 168.125C27.7148 168.763 27.5977 169.186 27.5977 169.395C27.5977 169.577 27.6432 169.733 27.7344 169.863C27.8385 169.993 27.9753 170.059 28.1445 170.059C28.444 170.059 28.7891 169.98 29.1797 169.824C29.5703 169.655 29.9609 169.447 30.3516 169.199C30.7422 168.952 31.1198 168.691 31.4844 168.418C31.849 168.145 32.1549 167.904 32.4023 167.695C33.0013 167.174 33.6458 166.582 34.3359 165.918C35.0391 165.241 35.7096 164.525 36.3477 163.77C36.9987 163.001 37.5846 162.214 38.1055 161.406C38.6263 160.586 39.0169 159.785 39.2773 159.004ZM63.5742 157.91C63.5742 157.624 63.5417 157.35 63.4766 157.09C63.4245 156.829 63.3333 156.667 63.2031 156.602C62.7604 156.602 62.2852 156.79 61.7773 157.168C61.2826 157.546 60.8073 158.086 60.3516 158.789C59.8958 159.479 59.4857 160.319 59.1211 161.309C58.7695 162.285 58.5091 163.372 58.3398 164.57C58.9518 164.115 59.5638 163.639 60.1758 163.145C60.8008 162.637 61.3607 162.109 61.8555 161.562C62.3633 161.016 62.7734 160.443 63.0859 159.844C63.4115 159.232 63.5742 158.587 63.5742 157.91ZM78.8086 161.504C78.8086 161.738 78.6328 162.168 78.2812 162.793C77.6042 163.77 76.849 164.74 76.0156 165.703C75.1953 166.654 74.3164 167.559 73.3789 168.418C72.4414 169.277 71.4648 170.078 70.4492 170.82C69.4336 171.549 68.4049 172.181 67.3633 172.715C66.3216 173.249 65.2799 173.672 64.2383 173.984C63.2096 174.284 62.2005 174.434 61.2109 174.434C58.9844 174.434 57.2461 173.809 55.9961 172.559C54.7591 171.296 54.1406 169.395 54.1406 166.855C54.1406 165.84 54.2122 164.844 54.3555 163.867C54.4987 162.878 54.7331 161.908 55.0586 160.957C55.3971 159.993 55.8333 159.049 56.3672 158.125C56.901 157.201 57.5586 156.302 58.3398 155.43C58.6263 155.104 58.9583 154.792 59.3359 154.492C59.7266 154.193 60.1367 153.926 60.5664 153.691C61.0091 153.457 61.4648 153.268 61.9336 153.125C62.4154 152.982 62.8906 152.91 63.3594 152.91C64.0495 152.91 64.6419 153.04 65.1367 153.301C65.6445 153.561 66.0612 153.913 66.3867 154.355C66.7122 154.785 66.9531 155.286 67.1094 155.859C67.2656 156.419 67.3438 157.012 67.3438 157.637C67.3438 158.796 66.9141 160 66.0547 161.25C65.1953 162.487 64.0039 163.757 62.4805 165.059C61.9857 165.475 61.4128 165.931 60.7617 166.426C60.1107 166.908 59.3815 167.454 58.5742 168.066C58.6003 168.392 58.6914 168.698 58.8477 168.984C59.0169 169.271 59.2383 169.525 59.5117 169.746C59.7982 169.954 60.1367 170.124 60.5273 170.254C60.918 170.371 61.3607 170.43 61.8555 170.43C62.4935 170.43 63.1706 170.352 63.8867 170.195C64.6029 170.026 65.3125 169.805 66.0156 169.531C66.7188 169.258 67.4023 168.945 68.0664 168.594C68.7305 168.229 69.3359 167.852 69.8828 167.461C70.8464 166.771 71.7708 166.029 72.6562 165.234C73.5547 164.427 74.4206 163.607 75.2539 162.773L76.2891 161.738C77.0052 161.1 77.6172 160.781 78.125 160.781C78.3854 160.781 78.5612 160.872 78.6523 161.055C78.7565 161.224 78.8086 161.374 78.8086 161.504ZM85.8594 160.254C85.8594 159.473 85.7878 158.913 85.6445 158.574C85.5143 158.223 85.3581 158.047 85.1758 158.047C84.9414 158.047 84.6875 158.105 84.4141 158.223C84.1536 158.327 83.8997 158.47 83.6523 158.652C83.4049 158.822 83.1706 159.01 82.9492 159.219C82.7409 159.427 82.5651 159.629 82.4219 159.824C82.1615 160.202 81.8685 160.632 81.543 161.113C81.2174 161.595 80.8854 162.109 80.5469 162.656C80.2083 163.203 79.8763 163.763 79.5508 164.336C79.2383 164.909 78.9583 165.475 78.7109 166.035C78.4635 166.595 78.2617 167.135 78.1055 167.656C77.9492 168.177 77.8711 168.646 77.8711 169.062C77.8711 169.505 77.9362 169.863 78.0664 170.137C78.1966 170.397 78.431 170.527 78.7695 170.527C78.9518 170.527 79.2253 170.397 79.5898 170.137C79.9674 169.876 80.3711 169.551 80.8008 169.16C81.2435 168.757 81.6797 168.32 82.1094 167.852C82.5391 167.383 82.8971 166.934 83.1836 166.504C83.4961 166.035 83.8086 165.534 84.1211 165C84.4336 164.466 84.7201 163.926 84.9805 163.379C85.2409 162.832 85.4492 162.292 85.6055 161.758C85.7747 161.224 85.8594 160.723 85.8594 160.254ZM97.5781 168.633C97.5781 168.867 97.5326 169.141 97.4414 169.453C97.3503 169.753 97.194 170.059 96.9727 170.371C96.7253 170.788 96.3997 171.217 95.9961 171.66C95.5924 172.09 95.1302 172.487 94.6094 172.852C94.1016 173.216 93.5417 173.516 92.9297 173.75C92.3307 173.971 91.6992 174.082 91.0352 174.082C90.2799 174.082 89.6094 173.926 89.0234 173.613C88.4375 173.301 87.9297 172.878 87.5 172.344C87.0703 171.797 86.7253 171.172 86.4648 170.469C86.2044 169.753 86.0286 169.004 85.9375 168.223C85.3906 169.03 84.7656 169.805 84.0625 170.547C83.3724 171.276 82.6432 171.927 81.875 172.5C81.1198 173.06 80.3516 173.509 79.5703 173.848C78.7891 174.173 78.0469 174.336 77.3438 174.336C76.8359 174.336 76.3542 174.225 75.8984 174.004C75.4427 173.77 75.0391 173.457 74.6875 173.066C74.349 172.676 74.0755 172.227 73.8672 171.719C73.6589 171.211 73.5547 170.677 73.5547 170.117C73.5547 169.622 73.5938 169.102 73.6719 168.555C73.763 167.995 73.9062 167.396 74.1016 166.758C74.2969 166.12 74.5508 165.423 74.8633 164.668C75.1888 163.913 75.5859 163.086 76.0547 162.188C76.5755 161.185 77.207 160.234 77.9492 159.336C78.6914 158.424 79.4466 157.63 80.2148 156.953C80.9831 156.263 81.7253 155.716 82.4414 155.312C83.1576 154.909 83.7435 154.707 84.1992 154.707C84.3424 154.707 84.4987 154.733 84.668 154.785C84.8503 154.824 85.0195 154.876 85.1758 154.941C85.332 154.993 85.4688 155.046 85.5859 155.098C85.7031 155.15 85.7812 155.176 85.8203 155.176C85.8333 155.176 85.8789 155.15 85.957 155.098C86.0352 155.046 86.1328 154.993 86.25 154.941C86.3672 154.876 86.4909 154.824 86.6211 154.785C86.7643 154.733 86.9076 154.707 87.0508 154.707C87.2721 154.707 87.5065 154.772 87.7539 154.902C88.0143 155.02 88.2617 155.182 88.4961 155.391C88.7305 155.586 88.9388 155.807 89.1211 156.055C89.3034 156.302 89.4206 156.549 89.4727 156.797C89.5117 156.953 89.5443 157.064 89.5703 157.129C89.5964 157.181 89.6224 157.227 89.6484 157.266C89.8177 157.422 89.9544 157.598 90.0586 157.793C90.1628 157.975 90.2148 158.236 90.2148 158.574C90.2148 158.73 90.1693 159.017 90.0781 159.434C90 159.837 89.9023 160.299 89.7852 160.82C89.681 161.341 89.5833 161.888 89.4922 162.461C89.4141 163.021 89.375 163.535 89.375 164.004C89.375 165.215 89.4466 166.237 89.5898 167.07C89.7461 167.891 89.9414 168.555 90.1758 169.062C90.4102 169.57 90.6771 169.935 90.9766 170.156C91.276 170.365 91.5755 170.469 91.875 170.469C92.6693 170.469 93.3464 170.306 93.9062 169.98C94.4792 169.655 94.9805 169.212 95.4102 168.652C95.5273 168.509 95.625 168.385 95.7031 168.281C95.7943 168.164 95.8789 168.066 95.957 167.988C96.0482 167.91 96.1458 167.852 96.25 167.812C96.3672 167.773 96.5039 167.754 96.6602 167.754C96.8555 167.754 97.0573 167.839 97.2656 168.008C97.474 168.164 97.5781 168.372 97.5781 168.633ZM146.66 162.344C146.66 162.799 146.484 163.314 146.133 163.887C145.781 164.46 145.306 165.065 144.707 165.703C144.108 166.328 143.411 166.979 142.617 167.656C141.823 168.333 140.983 169.01 140.098 169.688C138.9 170.599 137.624 171.471 136.27 172.305C134.928 173.138 133.561 173.88 132.168 174.531C130.775 175.169 129.388 175.677 128.008 176.055C126.628 176.445 125.312 176.641 124.062 176.641C122.565 176.641 121.27 176.426 120.176 175.996C119.082 175.579 118.177 174.98 117.461 174.199C116.745 173.418 116.211 172.48 115.859 171.387C115.521 170.28 115.352 169.056 115.352 167.715C115.352 166.595 115.482 165.449 115.742 164.277C116.003 163.105 116.361 161.947 116.816 160.801C117.285 159.655 117.832 158.548 118.457 157.48C119.082 156.413 119.753 155.43 120.469 154.531C120.885 154.01 121.38 153.47 121.953 152.91C122.526 152.337 123.132 151.777 123.77 151.23C124.408 150.684 125.052 150.176 125.703 149.707C126.354 149.225 126.973 148.809 127.559 148.457C127.975 148.21 128.503 147.936 129.141 147.637C129.779 147.324 130.443 147.038 131.133 146.777C131.836 146.504 132.526 146.276 133.203 146.094C133.88 145.911 134.466 145.82 134.961 145.82C135.846 145.82 136.549 145.879 137.07 145.996C137.591 146.113 138.053 146.322 138.457 146.621C138.652 146.764 138.874 146.986 139.121 147.285C139.368 147.585 139.603 147.91 139.824 148.262C140.046 148.613 140.234 148.965 140.391 149.316C140.547 149.655 140.625 149.941 140.625 150.176C140.625 150.332 140.573 150.547 140.469 150.82C140.378 151.081 140.254 151.367 140.098 151.68C139.941 151.992 139.766 152.318 139.57 152.656C139.375 152.982 139.18 153.294 138.984 153.594C138.802 153.893 138.626 154.16 138.457 154.395C138.288 154.629 138.158 154.805 138.066 154.922C137.48 155.612 136.745 155.957 135.859 155.957C135.117 155.957 134.538 155.749 134.121 155.332C133.717 154.915 133.516 154.395 133.516 153.77C133.516 153.574 133.626 153.268 133.848 152.852C134.069 152.422 134.434 151.953 134.941 151.445C135.189 151.198 135.404 150.957 135.586 150.723C135.768 150.475 135.911 150.26 136.016 150.078C135.69 149.961 135.358 149.902 135.02 149.902C134.616 149.902 134.108 150.007 133.496 150.215C132.897 150.41 132.266 150.664 131.602 150.977C130.951 151.276 130.312 151.615 129.688 151.992C129.062 152.37 128.535 152.734 128.105 153.086C126.908 154.062 125.775 155.163 124.707 156.387C123.639 157.611 122.754 158.945 122.051 160.391C121.777 160.964 121.517 161.576 121.27 162.227C121.022 162.878 120.807 163.542 120.625 164.219C120.443 164.883 120.299 165.553 120.195 166.23C120.091 166.895 120.039 167.526 120.039 168.125C120.039 168.789 120.111 169.401 120.254 169.961C120.397 170.521 120.632 171.009 120.957 171.426C121.296 171.842 121.732 172.168 122.266 172.402C122.799 172.637 123.457 172.754 124.238 172.754C125.163 172.754 126.133 172.63 127.148 172.383C128.164 172.122 129.193 171.777 130.234 171.348C131.276 170.905 132.318 170.404 133.359 169.844C134.414 169.271 135.423 168.672 136.387 168.047C137.363 167.422 138.281 166.79 139.141 166.152C140.013 165.514 140.801 164.909 141.504 164.336C141.777 164.115 142.077 163.854 142.402 163.555C142.741 163.255 143.079 162.943 143.418 162.617C143.77 162.292 144.108 161.96 144.434 161.621C144.772 161.283 145.078 160.97 145.352 160.684C145.651 160.84 145.885 160.977 146.055 161.094C146.237 161.211 146.367 161.335 146.445 161.465C146.536 161.582 146.595 161.712 146.621 161.855C146.647 161.999 146.66 162.161 146.66 162.344ZM155.938 160.254C155.938 159.473 155.866 158.913 155.723 158.574C155.592 158.223 155.436 158.047 155.254 158.047C155.02 158.047 154.766 158.105 154.492 158.223C154.232 158.327 153.978 158.47 153.73 158.652C153.483 158.822 153.249 159.01 153.027 159.219C152.819 159.427 152.643 159.629 152.5 159.824C152.24 160.202 151.947 160.632 151.621 161.113C151.296 161.595 150.964 162.109 150.625 162.656C150.286 163.203 149.954 163.763 149.629 164.336C149.316 164.909 149.036 165.475 148.789 166.035C148.542 166.595 148.34 167.135 148.184 167.656C148.027 168.177 147.949 168.646 147.949 169.062C147.949 169.505 148.014 169.863 148.145 170.137C148.275 170.397 148.509 170.527 148.848 170.527C149.03 170.527 149.303 170.397 149.668 170.137C150.046 169.876 150.449 169.551 150.879 169.16C151.322 168.757 151.758 168.32 152.188 167.852C152.617 167.383 152.975 166.934 153.262 166.504C153.574 166.035 153.887 165.534 154.199 165C154.512 164.466 154.798 163.926 155.059 163.379C155.319 162.832 155.527 162.292 155.684 161.758C155.853 161.224 155.938 160.723 155.938 160.254ZM167.656 168.633C167.656 168.867 167.611 169.141 167.52 169.453C167.428 169.753 167.272 170.059 167.051 170.371C166.803 170.788 166.478 171.217 166.074 171.66C165.671 172.09 165.208 172.487 164.688 172.852C164.18 173.216 163.62 173.516 163.008 173.75C162.409 173.971 161.777 174.082 161.113 174.082C160.358 174.082 159.688 173.926 159.102 173.613C158.516 173.301 158.008 172.878 157.578 172.344C157.148 171.797 156.803 171.172 156.543 170.469C156.283 169.753 156.107 169.004 156.016 168.223C155.469 169.03 154.844 169.805 154.141 170.547C153.451 171.276 152.721 171.927 151.953 172.5C151.198 173.06 150.43 173.509 149.648 173.848C148.867 174.173 148.125 174.336 147.422 174.336C146.914 174.336 146.432 174.225 145.977 174.004C145.521 173.77 145.117 173.457 144.766 173.066C144.427 172.676 144.154 172.227 143.945 171.719C143.737 171.211 143.633 170.677 143.633 170.117C143.633 169.622 143.672 169.102 143.75 168.555C143.841 167.995 143.984 167.396 144.18 166.758C144.375 166.12 144.629 165.423 144.941 164.668C145.267 163.913 145.664 163.086 146.133 162.188C146.654 161.185 147.285 160.234 148.027 159.336C148.77 158.424 149.525 157.63 150.293 156.953C151.061 156.263 151.803 155.716 152.52 155.312C153.236 154.909 153.822 154.707 154.277 154.707C154.421 154.707 154.577 154.733 154.746 154.785C154.928 154.824 155.098 154.876 155.254 154.941C155.41 154.993 155.547 155.046 155.664 155.098C155.781 155.15 155.859 155.176 155.898 155.176C155.911 155.176 155.957 155.15 156.035 155.098C156.113 155.046 156.211 154.993 156.328 154.941C156.445 154.876 156.569 154.824 156.699 154.785C156.842 154.733 156.986 154.707 157.129 154.707C157.35 154.707 157.585 154.772 157.832 154.902C158.092 155.02 158.34 155.182 158.574 155.391C158.809 155.586 159.017 155.807 159.199 156.055C159.382 156.302 159.499 156.549 159.551 156.797C159.59 156.953 159.622 157.064 159.648 157.129C159.674 157.181 159.701 157.227 159.727 157.266C159.896 157.422 160.033 157.598 160.137 157.793C160.241 157.975 160.293 158.236 160.293 158.574C160.293 158.73 160.247 159.017 160.156 159.434C160.078 159.837 159.98 160.299 159.863 160.82C159.759 161.341 159.661 161.888 159.57 162.461C159.492 163.021 159.453 163.535 159.453 164.004C159.453 165.215 159.525 166.237 159.668 167.07C159.824 167.891 160.02 168.555 160.254 169.062C160.488 169.57 160.755 169.935 161.055 170.156C161.354 170.365 161.654 170.469 161.953 170.469C162.747 170.469 163.424 170.306 163.984 169.98C164.557 169.655 165.059 169.212 165.488 168.652C165.605 168.509 165.703 168.385 165.781 168.281C165.872 168.164 165.957 168.066 166.035 167.988C166.126 167.91 166.224 167.852 166.328 167.812C166.445 167.773 166.582 167.754 166.738 167.754C166.934 167.754 167.135 167.839 167.344 168.008C167.552 168.164 167.656 168.372 167.656 168.633ZM208.047 157.07C208.047 157.513 207.904 157.865 207.617 158.125C207.344 158.372 207.018 158.561 206.641 158.691C206.276 158.809 205.905 158.887 205.527 158.926C205.15 158.965 204.863 158.991 204.668 159.004C203.861 159.043 203.079 159.108 202.324 159.199C201.582 159.277 200.872 159.362 200.195 159.453C199.531 159.544 198.913 159.635 198.34 159.727C197.78 159.805 197.285 159.863 196.855 159.902C196.764 160.267 196.647 160.716 196.504 161.25C196.374 161.771 196.23 162.344 196.074 162.969C195.931 163.581 195.788 164.212 195.645 164.863C195.501 165.501 195.365 166.113 195.234 166.699C195.117 167.285 195.02 167.819 194.941 168.301C194.876 168.77 194.844 169.141 194.844 169.414C194.844 169.635 194.863 169.915 194.902 170.254C194.954 170.579 195.033 170.898 195.137 171.211C195.254 171.51 195.41 171.771 195.605 171.992C195.801 172.214 196.048 172.324 196.348 172.324C196.934 172.324 197.63 172.077 198.438 171.582C199.245 171.087 200.085 170.391 200.957 169.492C201.139 169.31 201.393 169.115 201.719 168.906C202.057 168.698 202.435 168.594 202.852 168.594C203.151 168.594 203.405 168.652 203.613 168.77C203.822 168.874 203.926 169.115 203.926 169.492C203.926 169.74 203.9 169.954 203.848 170.137C203.809 170.319 203.743 170.501 203.652 170.684C203.561 170.853 203.444 171.035 203.301 171.23C203.158 171.426 202.988 171.66 202.793 171.934C202.65 172.103 202.441 172.324 202.168 172.598C201.908 172.871 201.595 173.164 201.23 173.477C200.866 173.789 200.456 174.108 200 174.434C199.544 174.759 199.062 175.046 198.555 175.293C198.047 175.553 197.513 175.762 196.953 175.918C196.406 176.087 195.853 176.172 195.293 176.172C194.46 176.172 193.757 176.055 193.184 175.82C192.611 175.586 192.135 175.28 191.758 174.902C191.393 174.525 191.107 174.095 190.898 173.613C190.703 173.132 190.56 172.643 190.469 172.148C190.378 171.654 190.319 171.172 190.293 170.703C190.28 170.234 190.273 169.831 190.273 169.492C190.273 169.128 190.306 168.691 190.371 168.184C190.449 167.676 190.54 167.142 190.645 166.582C190.762 166.009 190.885 165.423 191.016 164.824C191.146 164.225 191.27 163.646 191.387 163.086C191.504 162.526 191.602 162.012 191.68 161.543C191.771 161.061 191.829 160.658 191.855 160.332C191.517 160.332 191.23 160.28 190.996 160.176C190.762 160.072 190.566 159.941 190.41 159.785C190.267 159.629 190.156 159.46 190.078 159.277C190.013 159.082 189.98 158.9 189.98 158.73C189.98 158.236 190.085 157.845 190.293 157.559C190.514 157.272 190.781 157.064 191.094 156.934C191.419 156.79 191.758 156.699 192.109 156.66C192.474 156.621 192.799 156.595 193.086 156.582C193.099 156.517 193.171 156.263 193.301 155.82C193.431 155.365 193.574 154.831 193.73 154.219C193.9 153.607 194.069 152.975 194.238 152.324C194.421 151.66 194.557 151.087 194.648 150.605C194.818 149.746 195.13 149.147 195.586 148.809C196.042 148.457 196.589 148.281 197.227 148.281C197.656 148.281 197.995 148.353 198.242 148.496C198.49 148.639 198.678 148.822 198.809 149.043C198.939 149.251 199.017 149.479 199.043 149.727C199.082 149.974 199.102 150.195 199.102 150.391C199.102 150.469 199.043 150.69 198.926 151.055C198.822 151.419 198.691 151.875 198.535 152.422C198.379 152.956 198.21 153.561 198.027 154.238C197.858 154.915 197.708 155.612 197.578 156.328C197.734 156.315 198.001 156.289 198.379 156.25C198.757 156.211 199.18 156.172 199.648 156.133C200.117 156.081 200.612 156.029 201.133 155.977C201.654 155.911 202.135 155.859 202.578 155.82C203.034 155.768 203.424 155.729 203.75 155.703C204.089 155.677 204.303 155.664 204.395 155.664C205.085 155.664 205.664 155.684 206.133 155.723C206.602 155.749 206.973 155.814 207.246 155.918C207.533 156.022 207.734 156.165 207.852 156.348C207.982 156.53 208.047 156.771 208.047 157.07ZM188.809 158.574C188.809 159.108 188.639 159.551 188.301 159.902C187.962 160.241 187.539 160.41 187.031 160.41C186.68 160.41 186.374 160.358 186.113 160.254C185.853 160.15 185.618 160.033 185.41 159.902C185.202 159.772 185.007 159.655 184.824 159.551C184.642 159.447 184.447 159.395 184.238 159.395C184.004 159.395 183.75 159.473 183.477 159.629C183.203 159.785 182.917 160 182.617 160.273C182.318 160.534 182.005 160.84 181.68 161.191C181.367 161.543 181.055 161.914 180.742 162.305C180.521 162.578 180.273 162.91 180 163.301C179.727 163.678 179.453 164.076 179.18 164.492C178.906 164.909 178.646 165.332 178.398 165.762C178.151 166.191 177.936 166.589 177.754 166.953C177.598 167.279 177.422 167.656 177.227 168.086C177.044 168.516 176.868 168.952 176.699 169.395C176.543 169.837 176.4 170.26 176.27 170.664C176.139 171.068 176.055 171.406 176.016 171.68C175.938 172.188 175.859 172.656 175.781 173.086C175.703 173.516 175.592 173.887 175.449 174.199C175.319 174.499 175.137 174.733 174.902 174.902C174.681 175.072 174.375 175.156 173.984 175.156C173.281 175.156 172.754 175.007 172.402 174.707C172.051 174.408 171.797 174.023 171.641 173.555C171.497 173.086 171.413 172.572 171.387 172.012C171.361 171.452 171.322 170.911 171.27 170.391C171.23 170.052 171.198 169.714 171.172 169.375C171.146 169.036 171.12 168.685 171.094 168.32C171.081 167.943 171.068 167.546 171.055 167.129C171.042 166.699 171.035 166.23 171.035 165.723C171.035 165.059 171.061 164.316 171.113 163.496C171.165 162.676 171.224 161.888 171.289 161.133C171.367 160.378 171.445 159.707 171.523 159.121C171.615 158.535 171.693 158.145 171.758 157.949C171.888 157.598 172.064 157.266 172.285 156.953C172.507 156.628 172.747 156.348 173.008 156.113C173.281 155.866 173.561 155.671 173.848 155.527C174.147 155.384 174.434 155.312 174.707 155.312C174.954 155.312 175.202 155.345 175.449 155.41C175.71 155.475 175.938 155.586 176.133 155.742C176.341 155.898 176.51 156.107 176.641 156.367C176.771 156.615 176.836 156.927 176.836 157.305C176.836 157.396 176.803 157.546 176.738 157.754C176.673 157.949 176.589 158.236 176.484 158.613C176.367 159.017 176.237 159.486 176.094 160.02C175.951 160.553 175.814 161.1 175.684 161.66C175.566 162.22 175.462 162.773 175.371 163.32C175.28 163.867 175.228 164.355 175.215 164.785C175.28 164.642 175.397 164.408 175.566 164.082C175.736 163.743 175.911 163.392 176.094 163.027C176.289 162.65 176.478 162.292 176.66 161.953C176.842 161.602 176.979 161.348 177.07 161.191C177.448 160.553 177.884 159.876 178.379 159.16C178.874 158.444 179.434 157.786 180.059 157.188C180.697 156.576 181.413 156.074 182.207 155.684C183.001 155.28 183.874 155.078 184.824 155.078C185.553 155.078 186.172 155.176 186.68 155.371C187.188 155.553 187.598 155.807 187.91 156.133C188.223 156.445 188.451 156.816 188.594 157.246C188.737 157.663 188.809 158.105 188.809 158.574Z" fill="#FFD15C"/>
</g>
<path fill-rule="evenodd" clip-rule="evenodd" d="M90.4277 48.843C90.8785 49.4752 90.7315 50.3532 90.0993 50.8041C81.3686 57.0306 78.4173 65.2578 78.0242 68.3764C77.9271 69.1468 77.2238 69.6926 76.4534 69.5955C75.683 69.4984 75.1372 68.7952 75.2343 68.0248C75.72 64.1721 79.0604 55.223 88.4666 48.5147C89.0988 48.0638 89.9768 48.2108 90.4277 48.843Z" fill="white"/>
<path fill-rule="evenodd" clip-rule="evenodd" d="M125.923 48.843C125.472 49.4752 125.619 50.3532 126.251 50.8041C134.982 57.0306 137.933 65.2578 138.326 68.3764C138.424 69.1468 139.127 69.6926 139.897 69.5955C140.668 69.4984 141.213 68.7952 141.116 68.0248C140.631 64.1721 137.29 55.223 127.884 48.5147C127.252 48.0638 126.374 48.2108 125.923 48.843Z" fill="white"/>
<path fill-rule="evenodd" clip-rule="evenodd" d="M67.4207 95.7986C67.7571 96.4984 67.4626 97.3385 66.7628 97.6749C64.882 98.5792 61.0776 101.642 60.8125 106.452L60.9667 116.97H66.2373V107.656C66.2373 106.879 66.8668 106.25 67.6433 106.25C68.4198 106.25 69.0492 106.879 69.0492 107.656V116.97H82.6282C83.4047 116.97 84.0341 117.6 84.0341 118.376C84.0341 119.153 83.4047 119.782 82.6282 119.782H59.5812C58.8128 119.782 58.1867 119.165 58.1754 118.397L58.0002 106.446C57.9997 106.415 58.0002 106.385 58.0018 106.354C58.3184 100.083 63.1662 96.284 65.5443 95.1407C66.2442 94.8042 67.0842 95.0988 67.4207 95.7986ZM85.859 95.6C86.3051 94.9645 87.1819 94.8109 87.8175 95.257C88.4607 95.7085 90.1698 97.0274 92.1741 98.8937C92.7424 99.4229 92.7741 100.313 92.245 100.881C91.7158 101.449 90.8262 101.481 90.2579 100.952C88.3364 99.1625 86.7272 97.9272 86.202 97.5586C85.5664 97.1124 85.4128 96.2356 85.859 95.6ZM84.9942 106.25C85.7707 106.25 86.4002 106.879 86.4002 107.656V109.852C86.4002 110.629 85.7707 111.258 84.9942 111.258C84.2177 111.258 83.5882 110.629 83.5882 109.852V107.656C83.5882 106.879 84.2177 106.25 84.9942 106.25Z" fill="white"/>
<path fill-rule="evenodd" clip-rule="evenodd" d="M148.579 95.7986C148.242 96.4984 148.537 97.3385 149.237 97.6749C151.118 98.5792 154.922 101.642 155.187 106.452L155.033 116.97H149.762V107.656C149.762 106.879 149.133 106.25 148.356 106.25C147.58 106.25 146.95 106.879 146.95 107.656V116.97H133.371C132.595 116.97 131.965 117.6 131.965 118.376C131.965 119.153 132.595 119.782 133.371 119.782H156.418C157.187 119.782 157.813 119.165 157.824 118.397L157.999 106.446C158 106.415 157.999 106.385 157.998 106.354C157.681 100.083 152.833 96.284 150.455 95.1407C149.755 94.8042 148.915 95.0988 148.579 95.7986ZM130.141 95.6C129.694 94.9645 128.818 94.8109 128.182 95.257C127.539 95.7085 125.83 97.0274 123.825 98.8937C123.257 99.4229 123.225 100.313 123.755 100.881C124.284 101.449 125.173 101.481 125.742 100.952C127.663 99.1625 129.272 97.9272 129.798 97.5586C130.433 97.1124 130.587 96.2356 130.141 95.6ZM131.005 106.25C130.229 106.25 129.599 106.879 129.599 107.656V109.852C129.599 110.629 130.229 111.258 131.005 111.258C131.782 111.258 132.411 110.629 132.411 109.852V107.656C132.411 106.879 131.782 106.25 131.005 106.25Z" fill="white"/>
<path fill-rule="evenodd" clip-rule="evenodd" d="M96.8232 102.618C97.1786 103.309 96.9071 104.156 96.2168 104.512C92.6308 106.358 90.8015 109.513 89.8646 112.315C89.3975 113.711 89.163 114.992 89.0458 115.922C88.9874 116.386 88.9587 116.759 88.9446 117.011C88.9376 117.136 88.9342 117.232 88.9325 117.292C88.932 117.315 88.9316 117.333 88.9314 117.346L89.4038 128.569H96.2899V119.837C96.2899 119.06 96.9194 118.431 97.6959 118.431C98.4724 118.431 99.1019 119.06 99.1019 119.837V128.569H117.25V120.277C117.25 119.501 117.88 118.871 118.656 118.871C119.433 118.871 120.062 119.501 120.062 120.277V128.569H126.847L127.243 116.472C127.243 116.462 127.243 116.449 127.242 116.432C127.241 116.383 127.238 116.304 127.231 116.199C127.218 115.988 127.19 115.671 127.134 115.273C127.022 114.474 126.796 113.357 126.344 112.104C125.44 109.606 123.649 106.601 120.061 104.471C119.393 104.075 119.173 103.212 119.57 102.544C119.966 101.876 120.829 101.657 121.496 102.053C125.779 104.596 127.923 108.203 128.988 111.148C129.519 112.618 129.785 113.931 129.919 114.881C129.986 115.358 130.02 115.746 130.037 116.021C130.046 116.159 130.051 116.268 130.053 116.347C130.054 116.386 130.055 116.418 130.055 116.441C130.055 116.453 130.056 116.462 130.056 116.47L130.056 116.48L130.056 116.483V116.485C130.056 116.486 130.056 116.486 128.65 116.486H130.056C130.056 116.502 130.055 116.517 130.055 116.532L129.613 130.021C129.588 130.78 128.966 131.381 128.207 131.381H88.0557C87.3022 131.381 86.6827 130.787 86.651 130.034L86.1204 117.427C86.1196 117.407 86.1191 117.388 86.1191 117.368L87.5251 117.368C86.1191 117.368 86.1191 117.367 86.1191 117.367L86.1191 117.365L86.1192 117.362L86.1192 117.352C86.1193 117.344 86.1193 117.334 86.1195 117.321C86.1198 117.296 86.1204 117.261 86.1216 117.218C86.1239 117.131 86.1284 117.008 86.1371 116.853C86.1544 116.544 86.1886 116.106 86.2559 115.571C86.3903 114.504 86.6588 113.035 87.1978 111.423C88.2729 108.208 90.4677 104.309 94.9296 102.012C95.6199 101.656 96.4677 101.928 96.8232 102.618Z" fill="white"/>
<path fill-rule="evenodd" clip-rule="evenodd" d="M121.668 47.8953C119.235 50.0241 117.411 52.761 116.499 55.8019H110.344L116.498 32.3863C116.498 32.0823 116.498 31.7781 116.194 31.6261C115.89 31.474 115.586 31.6261 115.434 31.7782C115.13 32.0823 114.826 32.2344 114.522 32.2344C114.066 32.2344 113.762 32.0823 113.306 31.7782C112.697 31.17 112.089 30.8659 111.329 30.8659C110.569 30.8659 109.96 31.17 109.352 31.7782C108.744 32.3865 107.832 32.3865 107.224 31.7782C106.767 31.17 106.007 30.8659 105.247 30.8659C104.487 30.8659 103.726 31.17 103.27 31.7782C102.966 32.0823 102.51 32.2344 102.054 32.2344C101.75 32.2344 101.294 32.0823 101.142 31.7782C100.989 31.6261 100.685 31.4742 100.381 31.6261C100.077 31.7782 99.9252 32.0823 100.077 32.3863L106.081 55.8019H99.9253C99.013 52.7608 97.1884 50.0239 94.6036 47.8953C89.8901 43.9421 87.0011 38.0122 87.1532 31.322C87.4572 20.5266 96.2761 11.4037 107.072 10.9475C119.236 10.3393 129.119 20.0704 129.119 31.9302C129.119 38.3163 126.23 44.0941 121.668 47.8953ZM107.446 55.8019L101.446 33.4507H101.902C102.662 33.4507 103.422 33.1467 104.03 32.5384C104.334 32.2344 104.639 32.0823 105.095 32.0823C105.551 32.0823 105.855 32.2344 106.159 32.5384C107.224 33.7548 109.048 33.7548 110.112 32.5384C110.416 32.2344 110.721 32.0823 111.177 32.0823C111.481 32.0823 111.937 32.2344 112.241 32.5384C112.849 33.1467 113.458 33.4507 114.37 33.4507H114.826L108.976 55.8019H107.446Z" fill="#FFD15C"/>
<path d="M103.424 69.7903C104.184 71.6149 106.009 72.9833 108.137 72.9833C110.266 72.9833 112.091 71.6149 112.851 69.7903H103.424Z" fill="white"/>
<path d="M116.348 61.4276H99.9269C99.0146 61.4276 98.2544 60.6674 98.2544 59.7551C98.2544 58.8428 99.0146 58.0826 99.9269 58.0826H116.348C117.26 58.0826 118.021 58.8428 118.021 59.7551C118.021 60.6674 117.26 61.4276 116.348 61.4276Z" fill="white"/>
<path d="M116.347 66.7494H99.9254C99.0131 66.7494 98.2529 65.9892 98.2529 65.0769C98.2529 64.1646 99.0131 63.4044 99.9254 63.4044H116.347C117.259 63.4044 118.019 64.1646 118.019 65.0769C118.019 65.9891 117.259 66.7494 116.347 66.7494Z" fill="white"/>
<path d="M108.136 0C107.376 0 106.616 0.608242 106.616 1.52053V6.69023C106.616 7.45043 107.224 8.21077 108.136 8.21077C109.049 8.21077 109.657 7.60252 109.657 6.69023V1.52053C109.657 0.608242 108.896 0 108.136 0Z" fill="#FFD15C"/>
<path d="M87.762 9.275C87.1538 8.66676 86.2415 8.66676 85.6334 9.275C85.0253 9.88324 85.0251 10.7955 85.6334 11.4036L89.2825 15.0528C89.8908 15.661 90.8031 15.661 91.4112 15.0528C92.0193 14.4446 92.0194 13.5323 91.4112 12.9242L87.762 9.275Z" fill="#FFD15C"/>
<path d="M83.0481 30.2577H77.8784C77.1182 30.2577 76.3579 30.866 76.3579 31.7783C76.3579 32.5385 76.9662 33.2988 77.8784 33.2988H83.0481C83.8083 33.2988 84.5687 32.6905 84.5687 31.7783C84.5687 31.0179 83.8083 30.2577 83.0481 30.2577Z" fill="#FFD15C"/>
<path d="M138.394 30.2577H133.224C132.464 30.2577 131.704 30.866 131.704 31.7783C131.704 32.5385 132.312 33.2988 133.224 33.2988H138.394C139.154 33.2988 139.914 32.6905 139.914 31.7783C139.914 31.0179 139.306 30.2577 138.394 30.2577Z" fill="#FFD15C"/>
<path d="M128.511 9.27502L124.862 12.9242C124.254 13.5324 124.254 14.4447 124.862 15.0528C125.47 15.6611 126.382 15.6611 126.991 15.0528L130.64 11.4037C131.248 10.7954 131.248 9.88312 130.64 9.27502C130.031 8.66692 129.119 8.66678 128.511 9.27502Z" fill="#FFD15C"/>
<path fill-rule="evenodd" clip-rule="evenodd" d="M76.3658 94.8261C81.3645 94.8261 85.4167 90.7739 85.4167 85.7752C85.4167 80.7765 81.3645 76.7243 76.3658 76.7243C71.3671 76.7243 67.3149 80.7765 67.3149 85.7752C67.3149 90.7739 71.3671 94.8261 76.3658 94.8261ZM76.3658 97.638C82.9175 97.638 88.2287 92.3269 88.2287 85.7752C88.2287 79.2235 82.9175 73.9123 76.3658 73.9123C69.8141 73.9123 64.5029 79.2235 64.5029 85.7752C64.5029 92.3269 69.8141 97.638 76.3658 97.638Z" fill="white"/>
<path fill-rule="evenodd" clip-rule="evenodd" d="M139.634 94.8261C144.633 94.8261 148.685 90.7739 148.685 85.7752C148.685 80.7765 144.633 76.7243 139.634 76.7243C134.636 76.7243 130.583 80.7765 130.583 85.7752C130.583 90.7739 134.636 94.8261 139.634 94.8261ZM139.634 97.638C146.186 97.638 151.497 92.3269 151.497 85.7752C151.497 79.2235 146.186 73.9123 139.634 73.9123C133.083 73.9123 127.771 79.2235 127.771 85.7752C127.771 92.3269 133.083 97.638 139.634 97.638Z" fill="white"/>
<path fill-rule="evenodd" clip-rule="evenodd" d="M108 101.504C113.872 101.504 118.633 96.744 118.633 90.8718C118.633 84.9996 113.872 80.2392 108 80.2392C102.128 80.2392 97.3676 84.9996 97.3676 90.8718C97.3676 96.744 102.128 101.504 108 101.504ZM108 104.316C115.425 104.316 121.445 98.297 121.445 90.8718C121.445 83.4466 115.425 77.4272 108 77.4272C100.575 77.4272 94.5557 83.4466 94.5557 90.8718C94.5557 98.297 100.575 104.316 108 104.316Z" fill="white"/>
<defs>
<filter id="filter0_d" x="0.460938" y="135.242" width="219.586" height="57.3984" filterUnits="userSpaceOnUse" color-interpolation-filters="sRGB">
<feFlood flood-opacity="0" result="BackgroundImageFix"/>
<feColorMatrix in="SourceAlpha" type="matrix" values="0 0 0 0 0 0 0 0 0 0 0 0 0 0 0 0 0 0 127 0"/>
<feOffset dy="4"/>
<feGaussianBlur stdDeviation="6"/>
<feColorMatrix type="matrix" values="0 0 0 0 0 0 0 0 0 0 0 0 0 0 0 0 0 0 0.25 0"/>
<feBlend mode="normal" in2="BackgroundImageFix" result="effect1_dropShadow"/>
<feBlend mode="normal" in="SourceGraphic" in2="effect1_dropShadow" result="shape"/>
</filter>
</defs>
</svg>
