<svg width="156" height="60" viewBox="0 0 156 60" fill="none" xmlns="http://www.w3.org/2000/svg">
<path d="M22.8498 9.47566C22.8498 10.0043 22.7955 10.5195 22.6871 11.021H14.0655C14.1061 12.7969 15.1499 13.6848 17.1969 13.6848C17.8205 13.6848 18.4034 13.5899 18.9456 13.4001C19.4879 13.1968 19.9488 12.9189 20.3283 12.5664L21.3857 14.3355C20.8299 14.8371 20.1589 15.2166 19.3726 15.4742C18.6 15.7182 17.7866 15.8402 16.9326 15.8402C15.8481 15.8402 14.8992 15.6436 14.0858 15.2505C13.286 14.8574 12.6692 14.3016 12.2354 13.5831C11.8016 12.8511 11.5847 12.0106 11.5847 11.0617C11.5847 9.85522 11.8491 8.77074 12.3777 7.80827C12.92 6.83223 13.6656 6.0731 14.6145 5.53086C15.577 4.98861 16.6547 4.71749 17.8476 4.71749C19.3659 4.71749 20.5791 5.14451 21.4874 5.99854C22.3956 6.83901 22.8498 7.99805 22.8498 9.47566ZM17.7256 6.7509C16.8716 6.7509 16.1395 6.98135 15.5295 7.44225C14.9331 7.90316 14.5196 8.53351 14.2891 9.33332H20.5114C20.5249 8.51996 20.2741 7.8896 19.759 7.44225C19.2574 6.98135 18.5796 6.7509 17.7256 6.7509Z" fill="#F8F8F8"/>
<path d="M31.9623 4.71749C32.857 4.71749 33.6636 4.90728 34.382 5.28685C35.114 5.66642 35.6902 6.21543 36.1104 6.9339C36.5306 7.65237 36.7408 8.49962 36.7408 9.47566C36.7408 10.6821 36.4696 11.7734 35.9274 12.7494C35.3987 13.7119 34.6667 14.4711 33.7313 15.0268C32.8095 15.5691 31.7793 15.8402 30.6406 15.8402C29.7865 15.8402 29.041 15.6911 28.4038 15.3929C27.7667 15.0946 27.2719 14.6608 26.9194 14.0915L25.8214 19.6427C24.7371 19.2578 24.1674 19.1059 23.239 18.9658L26.2281 4.8395H28.6478L28.4242 5.9782C29.3731 5.13773 30.5524 4.71749 31.9623 4.71749ZM30.4372 13.6645C31.1557 13.6645 31.7928 13.495 32.3486 13.1561C32.918 12.8037 33.3653 12.3224 33.6907 11.7124C34.016 11.0888 34.1787 10.3839 34.1787 9.59766C34.1787 8.74363 33.9279 8.07939 33.4263 7.60493C32.9247 7.11691 32.2198 6.8729 31.3116 6.8729C30.5931 6.8729 29.9492 7.04913 29.3799 7.40159C28.8241 7.74049 28.3835 8.22172 28.0581 8.8453C27.7328 9.45532 27.5701 10.1535 27.5701 10.9397C27.5701 11.7937 27.8209 12.4648 28.3225 12.9528C28.8241 13.4272 29.529 13.6645 30.4372 13.6645Z" fill="#F8F8F8"/>
<path d="M40.168 4.8395H42.7098L40.5544 15.6979H38.0126L40.168 4.8395ZM42.0184 3.0501C41.5711 3.0501 41.205 2.91454 40.9204 2.64342C40.6357 2.35875 40.4933 2.01985 40.4933 1.62672C40.4933 1.16582 40.6492 0.779471 40.961 0.467683C41.2864 0.155894 41.7066 0 42.2217 0C42.6691 0 43.0351 0.13556 43.3198 0.40668C43.6045 0.664244 43.7468 0.982811 43.7468 1.36238C43.7468 1.86395 43.5841 2.27063 43.2588 2.58242C42.947 2.89421 42.5335 3.0501 42.0184 3.0501Z" fill="#F8F8F8"/>
<path d="M49.3196 15.8402C48.2487 15.8402 47.3065 15.6436 46.4932 15.2505C45.6934 14.8438 45.0766 14.2813 44.6428 13.5628C44.209 12.8443 43.9921 12.0106 43.9921 11.0617C43.9921 9.85522 44.27 8.77074 44.8258 7.80827C45.3816 6.84579 46.1475 6.09343 47.1235 5.55119C48.1131 4.99539 49.2383 4.71749 50.499 4.71749C51.597 4.71749 52.5391 4.93439 53.3254 5.36818C54.1252 5.78842 54.742 6.41877 55.1758 7.25925L53 8.37762C52.4985 7.37447 51.597 6.8729 50.2956 6.8729C49.5772 6.8729 48.9332 7.04913 48.3639 7.40159C47.8081 7.74049 47.3675 8.22172 47.0422 8.8453C46.7168 9.45532 46.5542 10.1535 46.5542 10.9397C46.5542 11.7937 46.8049 12.4648 47.3065 12.9528C47.8081 13.4272 48.5198 13.6645 49.4416 13.6645C50.0652 13.6645 50.6277 13.5425 51.1293 13.2985C51.6309 13.0409 52.0579 12.6613 52.4104 12.1597L54.2811 13.4205C53.7795 14.1796 53.0882 14.7761 52.207 15.2099C51.3259 15.6301 50.3634 15.8402 49.3196 15.8402Z" fill="#F8F8F8"/>
<path fill-rule="evenodd" clip-rule="evenodd" d="M118.373 53.6183L119.999 42.9746C119.901 42.8798 119.804 42.7834 119.708 42.6856L119.658 42.6341L119.609 42.581C117.52 40.3092 120.559 37.4292 120.559 34.5187C120.559 30.2333 122.47 26.6525 125.985 24.1677C129.385 21.7549 133.622 20.7842 138.247 20.7842C140.644 20.7842 143.03 21.0631 145.398 21.6135C147.745 22.1226 149.914 22.8708 151.76 23.9658L155.41 26.1307L150.015 36.6854C150.724 37.1884 151.386 37.762 151.997 38.4048C154.156 40.628 154.931 43.5071 154.931 46.3755C154.931 50.7105 152.906 54.2682 149.333 56.7136C145.891 59.0688 141.576 59.9998 136.852 59.9998C134.031 59.9998 131.262 59.6343 128.557 58.9012C125.939 58.1917 123.56 57.2215 121.612 55.8683L118.373 53.6183Z" fill="#FF5C00"/>
<path d="M104.575 20.7812H129.993V37.3725H128.278C124.412 37.3725 121.278 40.5065 121.278 44.3725V59.9969H104.575V20.7812Z" fill="#8015A6"/>
<circle cx="19.6078" cy="40.3891" r="19.6078" fill="#0A71D1"/>
<path d="M6.73535 48.366L6.73666 48.3682C8.08183 50.6222 9.95504 52.385 12.3482 53.6541C14.7428 54.924 17.4399 55.5551 20.431 55.5551C23.2431 55.5551 25.7296 54.9779 27.8796 53.8118L27.8814 53.8108C30.0678 52.6082 31.7305 50.9097 32.8616 48.7205L33.02 48.414L27.3189 45.0884L27.1325 45.3882C26.3487 46.6492 25.3672 47.5939 24.1893 48.2338C23.0417 48.8409 21.7736 49.1466 20.3779 49.1466C17.9499 49.1466 15.9744 48.381 14.4214 46.8632C12.9083 45.315 12.1379 43.2537 12.1379 40.6411C12.1379 38.0291 12.9254 35.9875 14.4716 34.475L14.4744 34.4721C16.0294 32.9172 17.9879 32.1357 20.3779 32.1357C21.7708 32.1357 23.037 32.4577 24.1837 33.0985L24.1891 33.1016L24.1947 33.1045C25.3693 33.7085 26.3491 34.6338 27.1325 35.894L27.3189 36.1939L33.016 32.8706L32.8638 32.5661C31.7677 30.3739 30.1207 28.6908 27.9316 27.523C25.7812 26.3569 23.2771 25.7803 20.431 25.7803C17.4053 25.7803 14.6904 26.4111 12.2951 27.6813L12.2931 27.6824C9.93542 28.9519 8.081 30.7145 6.73666 32.9672C5.39003 35.2237 4.72046 37.7851 4.72046 40.6411C4.72046 43.4972 5.39004 46.0753 6.73535 48.366Z" fill="white"/>
<circle cx="50.8349" cy="40.3891" r="19.6078" fill="#0FBD0B"/>
<circle cx="92.2292" cy="40.3891" r="19.6078" fill="#FB3333"/>
<rect x="63.1809" y="10.6143" width="16.703" height="49.3826" fill="#F0CA00"/>
<path d="M68.2642 15.6978H74.8001V54.9134H68.2642V15.6978Z" fill="white"/>
<path fill-rule="evenodd" clip-rule="evenodd" d="M37.8307 48.0781L37.834 48.084C39.1261 50.3361 40.9094 52.1001 43.1788 53.3713C45.45 54.6434 47.9965 55.2763 50.8099 55.2763C53.6565 55.2763 56.2202 54.6438 58.492 53.3713C60.762 52.0998 62.5292 50.3349 63.7874 48.0811C65.0799 45.7914 65.7228 43.2156 65.7228 40.3623C65.7228 37.5097 65.0802 34.9508 63.7868 32.6956C62.5286 30.4423 60.7616 28.6777 58.492 27.4065C56.2202 26.134 53.6565 25.5015 50.8099 25.5015C47.9965 25.5015 45.45 26.1344 43.1788 27.4065C40.9094 28.6776 39.1261 30.4417 37.834 32.6938L37.8319 32.6975C36.5732 34.9525 35.948 37.5106 35.948 40.3623C35.948 43.2141 36.5732 45.789 37.8307 48.0781ZM56.3653 46.5393C54.9062 48.0909 53.0638 48.8678 50.8099 48.8678C48.5567 48.8678 46.7148 48.0914 45.2559 46.5408C43.8328 44.9924 43.1068 42.945 43.1068 40.3623C43.1068 37.7797 43.8328 35.7323 45.2559 34.1838C46.7148 32.6333 48.5567 31.8568 50.8099 31.8568C53.0638 31.8568 54.9062 32.6338 56.3653 34.1853C57.8219 35.7342 58.5641 37.781 58.5641 40.3623C58.5641 42.9436 57.8219 44.9904 56.3653 46.5393Z" fill="white"/>
<path fill-rule="evenodd" clip-rule="evenodd" d="M79.2245 48.0781L79.2278 48.084C80.5199 50.3361 82.3032 52.1001 84.5726 53.3713C86.8438 54.6434 89.3903 55.2763 92.2037 55.2763C95.0503 55.2763 97.614 54.6438 99.8858 53.3713C102.156 52.0998 103.923 50.3349 105.181 48.0811C106.474 45.7914 107.117 43.2156 107.117 40.3623C107.117 37.5097 106.474 34.9508 105.181 32.6956C103.922 30.4423 102.155 28.6777 99.8858 27.4065C97.614 26.134 95.0503 25.5015 92.2037 25.5015C89.3903 25.5015 86.8438 26.1344 84.5726 27.4065C82.3032 28.6776 80.5199 30.4417 79.2278 32.6938L79.2257 32.6975C77.967 34.9525 77.3418 37.5106 77.3418 40.3623C77.3418 43.2141 77.967 45.789 79.2245 48.0781ZM97.7591 46.5393C96.3 48.0909 94.4576 48.8678 92.2037 48.8678C89.9505 48.8678 88.1086 48.0914 86.6497 46.5408C85.2266 44.9924 84.5006 42.945 84.5006 40.3623C84.5006 37.7797 85.2266 35.7323 86.6497 34.1838C88.1086 32.6333 89.9505 31.8568 92.2037 31.8568C94.4576 31.8568 96.3 32.6338 97.7591 34.1853C99.2157 35.7342 99.9579 37.781 99.9579 40.3623C99.9579 42.9436 99.2157 44.9904 97.7591 46.5393Z" fill="white"/>
<path d="M118.244 26.8117C117.485 27.3379 116.96 28.038 116.454 28.9224V25.5014H109.295V55.2762H116.778V40.9805C116.778 38.1094 116.785 36.5041 118.303 34.4304C118.818 33.7267 119.27 33.2854 119.802 32.9947C120.335 32.7031 120.982 32.5451 121.919 32.4664L122.178 32.4447L123.931 25.4666L123.43 25.5023C120.879 25.6845 119.341 26.0513 118.244 26.8117Z" fill="white"/>
<path d="M136.185 54.9132C133.884 54.9132 131.635 54.6123 129.44 54.0104C127.245 53.4085 125.493 52.6474 124.183 51.7269L126.732 46.6819C128.007 47.5315 129.529 48.2219 131.299 48.753C133.105 49.2486 134.875 49.4964 136.61 49.4964C140.575 49.4964 142.557 48.452 142.557 46.3632C142.557 45.3719 142.044 44.6816 141.017 44.2921C140.026 43.9027 138.415 43.5309 136.185 43.1769C133.848 42.8229 131.936 42.4157 130.449 41.9555C128.998 41.4952 127.723 40.6987 126.626 39.5657C125.564 38.3974 125.033 36.7866 125.033 34.7332C125.033 32.0425 126.148 29.9006 128.378 28.3074C130.644 26.6789 133.689 25.8646 137.512 25.8646C139.46 25.8646 141.407 26.0947 143.354 26.5549C145.301 26.9798 146.894 27.5639 148.133 28.3074L145.584 33.3524C143.177 31.9363 140.469 31.2282 137.459 31.2282C135.512 31.2282 134.025 31.5291 132.998 32.131C132.007 32.6975 131.511 33.4586 131.511 34.4145C131.511 35.4766 132.043 36.2378 133.105 36.6981C134.202 37.1229 135.884 37.53 138.15 37.9195C140.415 38.2735 142.274 38.6807 143.726 39.1409C145.177 39.6012 146.416 40.38 147.443 41.4775C148.505 42.575 149.036 44.1328 149.036 46.1508C149.036 48.8061 147.886 50.9303 145.584 52.5234C143.283 54.1166 140.15 54.9132 136.185 54.9132Z" fill="white"/>
<path fill-rule="evenodd" clip-rule="evenodd" d="M123.717 51.8434L126.593 46.1525L126.933 46.3797C128.172 47.2052 129.659 47.8813 131.399 48.4039C133.175 48.8909 134.911 49.1333 136.61 49.1333C138.572 49.1333 139.988 48.8729 140.901 48.3919C141.352 48.1542 141.671 47.8677 141.879 47.5399C142.085 47.2134 142.194 46.8257 142.194 46.3632C142.194 45.9333 142.084 45.592 141.881 45.3186C141.676 45.0426 141.355 44.8085 140.889 44.6316L140.885 44.6301C139.932 44.2561 138.355 43.8891 136.129 43.5357C133.783 43.1803 131.852 42.7699 130.342 42.3024L130.34 42.3016C128.829 41.8225 127.503 40.9929 126.365 39.8184L126.361 39.8143L126.357 39.81C125.218 38.5567 124.67 36.849 124.67 34.7332C124.67 31.9228 125.843 29.672 128.167 28.0123C130.513 26.3258 133.641 25.5015 137.512 25.5015C139.487 25.5015 141.462 25.7348 143.434 26.2009C145.405 26.6311 147.038 27.2266 148.32 27.9961L148.61 28.1698L145.734 33.8617L145.4 33.6654C143.053 32.2846 140.409 31.5913 137.459 31.5913C135.54 31.5913 134.128 31.8896 133.182 32.4443L133.179 32.4463C132.274 32.963 131.875 33.6164 131.875 34.4145C131.875 34.8824 131.991 35.2631 132.208 35.5742C132.425 35.886 132.762 36.1526 133.243 36.3621C134.305 36.7724 135.955 37.1737 138.209 37.5612C140.483 37.9167 142.361 38.3271 143.835 38.7948C145.345 39.2733 146.637 40.0848 147.706 41.2272C148.851 42.4118 149.399 44.0711 149.399 46.1508C149.399 48.9327 148.184 51.1654 145.791 52.822C143.409 54.4714 140.194 55.2763 136.185 55.2763C133.851 55.2763 131.571 54.9711 129.344 54.3606C127.125 53.7519 125.33 52.9763 123.974 52.024L123.717 51.8434ZM138.15 37.9195C135.884 37.53 134.202 37.1229 133.105 36.6981C132.043 36.2378 131.511 35.4766 131.511 34.4145C131.511 33.4586 132.007 32.6975 132.998 32.131C134.025 31.5291 135.512 31.2282 137.459 31.2282C140.338 31.2282 142.941 31.8761 145.269 33.1718C145.375 33.2307 145.48 33.2909 145.584 33.3524L148.133 28.3074C146.894 27.5639 145.301 26.9798 143.354 26.5549C141.407 26.0947 139.46 25.8646 137.512 25.8646C133.689 25.8646 130.644 26.6789 128.378 28.3074C126.148 29.9006 125.033 32.0425 125.033 34.7332C125.033 36.7866 125.564 38.3974 126.626 39.5657C127.723 40.6987 128.998 41.4952 130.449 41.9555C131.936 42.4157 133.848 42.8229 136.185 43.1769C138.415 43.5309 140.026 43.9027 141.017 44.2921C142.044 44.6816 142.557 45.3719 142.557 46.3632C142.557 48.452 140.575 49.4964 136.61 49.4964C134.875 49.4964 133.105 49.2486 131.299 48.753C129.669 48.2639 128.249 47.6396 127.039 46.8802C126.935 46.8151 126.833 46.749 126.732 46.6819L124.183 51.7269C125.493 52.6474 127.245 53.4085 129.44 54.0104C131.635 54.6123 133.884 54.9132 136.185 54.9132C140.15 54.9132 143.283 54.1166 145.584 52.5234C147.886 50.9303 149.036 48.8061 149.036 46.1508C149.036 44.1328 148.505 42.575 147.443 41.4775C146.416 40.38 145.177 39.6012 143.726 39.1409C142.274 38.6807 140.415 38.2735 138.15 37.9195Z" fill="white"/>
</svg>
