<svg width="208" height="80" viewBox="0 0 208 80" fill="none" xmlns="http://www.w3.org/2000/svg">
<path d="M30.4664 12.6342C30.4664 13.3391 30.3941 14.026 30.2495 14.6947H18.754C18.8082 17.0625 20.2 18.2464 22.9292 18.2464C23.7607 18.2464 24.5379 18.1199 25.2609 17.8669C25.9839 17.5957 26.5984 17.2252 27.1045 16.7553L28.5143 19.114C27.7733 19.7828 26.8786 20.2889 25.8302 20.6323C24.8 20.9576 23.7155 21.1203 22.5768 21.1203C21.1308 21.1203 19.8656 20.8582 18.7811 20.3341C17.7147 19.8099 16.8923 19.0688 16.3139 18.1109C15.7355 17.1348 15.4463 16.0142 15.4463 14.749C15.4463 13.1403 15.7988 11.6943 16.5037 10.411C17.2267 9.10965 18.2208 8.09747 19.486 7.37448C20.7693 6.65149 22.2063 6.29 23.7968 6.29C25.8212 6.29 27.4389 6.85935 28.6499 7.99806C29.8609 9.11869 30.4664 10.6641 30.4664 12.6342ZM23.6342 9.00121C22.4954 9.00121 21.5194 9.30848 20.706 9.92302C19.9108 10.5376 19.3595 11.378 19.0522 12.4444H27.3485C27.3666 11.36 27.0322 10.5195 26.3454 9.92302C25.6766 9.30848 24.7729 9.00121 23.6342 9.00121Z" fill="#545454"/>
<path d="M42.6164 6.29C43.8093 6.29 44.8848 6.54305 45.8428 7.04914C46.8188 7.55523 47.587 8.28725 48.1473 9.24521C48.7076 10.2032 48.9878 11.3328 48.9878 12.6342C48.9878 14.2429 48.6263 15.6979 47.9033 16.9993C47.1984 18.2826 46.2223 19.2948 44.9752 20.0358C43.7461 20.7588 42.3724 21.1203 40.8541 21.1203C39.7154 21.1203 38.7213 20.9215 37.8718 20.5238C37.0223 20.1262 36.3626 19.5478 35.8926 18.7887L34.4286 26.1903C32.9828 25.6772 32.2233 25.4746 30.9854 25.2878L34.9708 6.45267H38.1971L37.8989 7.97095C39.1641 6.85032 40.7366 6.29 42.6164 6.29ZM40.583 18.2193C41.541 18.2193 42.3905 17.9934 43.1315 17.5415C43.8907 17.0716 44.4871 16.4299 44.9209 15.6165C45.3547 14.7851 45.5716 13.8452 45.5716 12.7969C45.5716 11.6582 45.2372 10.7725 44.5685 10.1399C43.8997 9.48922 42.9598 9.16388 41.7488 9.16388C40.7909 9.16388 39.9323 9.39885 39.1732 9.86879C38.4321 10.3207 37.8447 10.9623 37.4109 11.7937C36.9771 12.6071 36.7602 13.538 36.7602 14.5863C36.7602 15.725 37.0946 16.6197 37.7634 17.2704C38.4321 17.903 39.372 18.2193 40.583 18.2193Z" fill="#545454"/>
<path d="M53.5574 6.45267H56.9464L54.0725 20.9305H50.6835L53.5574 6.45267ZM56.0246 4.06681C55.4281 4.06681 54.9401 3.88606 54.5606 3.52457C54.181 3.145 53.9912 2.69313 53.9912 2.16896C53.9912 1.55442 54.1991 1.0393 54.6148 0.623578C55.0486 0.207859 55.6089 0 56.2957 0C56.8922 0 57.3802 0.180747 57.7598 0.542241C58.1393 0.88566 58.3291 1.31042 58.3291 1.81651C58.3291 2.48527 58.1122 3.02751 57.6784 3.44323C57.2627 3.85895 56.7114 4.06681 56.0246 4.06681Z" fill="#545454"/>
<path d="M65.7595 21.1203C64.3316 21.1203 63.0754 20.8582 61.991 20.3341C60.9245 19.7918 60.1021 19.0417 59.5238 18.0837C58.9454 17.1258 58.6562 16.0142 58.6562 14.749C58.6562 13.1403 59.0267 11.6943 59.7678 10.411C60.5088 9.12773 61.53 8.12458 62.8314 7.40159C64.1509 6.66053 65.6511 6.29 67.332 6.29C68.7961 6.29 70.0523 6.57919 71.1006 7.15759C72.167 7.7179 72.9894 8.55838 73.5678 9.67901L70.6668 11.1702C69.998 9.83264 68.7961 9.16388 67.0609 9.16388C66.103 9.16388 65.2444 9.39885 64.4853 9.86879C63.7442 10.3207 63.1568 10.9623 62.723 11.7937C62.2892 12.6071 62.0723 13.538 62.0723 14.5863C62.0723 15.725 62.4067 16.6197 63.0754 17.2704C63.7442 17.903 64.6931 18.2193 65.9222 18.2193C66.7536 18.2193 67.5037 18.0566 68.1725 17.7313C68.8413 17.3879 69.4106 16.8818 69.8806 16.213L72.3749 17.894C71.7061 18.9061 70.7843 19.7014 69.6094 20.2798C68.4346 20.8401 67.1513 21.1203 65.7595 21.1203Z" fill="#545454"/>
<path fill-rule="evenodd" clip-rule="evenodd" d="M157.831 71.4912L159.999 57.2995C159.868 57.1731 159.739 57.0447 159.611 56.9142L159.544 56.8455L159.479 56.7747C156.693 53.7456 160.746 49.9057 160.746 46.0251C160.746 40.3111 163.293 35.5367 167.981 32.2236C172.513 29.0065 178.162 27.7123 184.33 27.7123C187.526 27.7123 190.707 28.0841 193.865 28.818C196.993 29.4968 199.885 30.4944 202.347 31.9545L207.214 34.841L200.021 48.914C200.965 49.5846 201.848 50.3494 202.663 51.2065C205.542 54.1707 206.575 58.0096 206.575 61.8341C206.575 67.6141 203.875 72.3577 199.11 75.6182C194.522 78.7584 188.768 79.9999 182.47 79.9999C178.708 79.9999 175.016 79.5125 171.409 78.5351C167.919 77.589 164.747 76.2954 162.15 74.4911L157.831 71.4912Z" fill="#FF5C00"/>
<path d="M139.434 27.7084H173.324V49.83H168.704C164.838 49.83 161.704 52.964 161.704 56.83V79.9959H139.434V27.7084Z" fill="#8015A6"/>
<circle cx="26.1438" cy="53.8522" r="26.1438" fill="#0A71D1"/>
<path d="M8.98048 64.488L8.98222 64.4909C10.7758 67.4964 13.2734 69.8467 16.4643 71.5389C19.6571 73.232 23.2532 74.0735 27.2414 74.0735C30.9908 74.0735 34.3061 73.3039 37.1728 71.7491L37.1753 71.7478C40.0905 70.1444 42.3074 67.8796 43.8155 64.9607L44.0267 64.5521L36.4253 60.1179L36.1767 60.5177C35.1316 62.199 33.823 63.4586 32.2524 64.3118C30.7224 65.1213 29.0314 65.5289 27.1706 65.5289C23.9333 65.5289 21.2992 64.5081 19.2285 62.4844C17.2111 60.42 16.1839 57.6717 16.1839 54.1882C16.1839 50.7055 17.2339 47.9834 19.2955 45.9667L19.2993 45.9629C21.3725 43.8896 23.9838 42.8476 27.1706 42.8476C29.0278 42.8476 30.716 43.277 32.2449 44.1314L32.2522 44.1355L32.2597 44.1393C33.8258 44.9447 35.1322 46.1784 36.1767 47.8588L36.4253 48.2585L44.0214 43.8274L43.8184 43.4214C42.357 40.4986 40.1609 38.2544 37.2421 36.6973C34.3749 35.1426 31.0362 34.3737 27.2414 34.3737C23.2071 34.3737 19.5872 35.2148 16.3935 36.9084L16.3908 36.9098C13.2472 38.6025 10.7747 40.9527 8.98222 43.9563C7.18672 46.965 6.29395 50.3802 6.29395 54.1882C6.29395 57.9964 7.18673 61.4338 8.98048 64.488Z" fill="white"/>
<circle cx="67.7799" cy="53.8522" r="26.1438" fill="#0FBD0B"/>
<circle cx="122.972" cy="53.8522" r="26.1438" fill="#FB3333"/>
<rect x="84.2413" y="14.1523" width="22.2706" height="65.8436" fill="#F0CA00"/>
<path d="M91.019 20.9304H99.7336V73.2179H91.019V20.9304Z" fill="white"/>
<path fill-rule="evenodd" clip-rule="evenodd" d="M50.441 64.1043L50.4454 64.1121C52.1681 67.1149 54.5459 69.467 57.5719 71.1618C60.6 72.858 63.9954 73.7018 67.7466 73.7018C71.542 73.7018 74.9603 72.8585 77.9894 71.1618C81.0161 69.4665 83.3723 67.1133 85.05 64.1082C86.7734 61.0554 87.6305 57.6208 87.6305 53.8165C87.6305 50.013 86.7737 46.6012 85.0492 43.5942C83.3716 40.5899 81.0156 38.237 77.9894 36.542C74.9603 34.8454 71.542 34.002 67.7466 34.002C63.9954 34.002 60.6 34.8459 57.5719 36.542C54.5459 38.2369 52.1681 40.589 50.4454 43.5918L50.4426 43.5967C48.7643 46.6034 47.9307 50.0142 47.9307 53.8165C47.9307 57.6189 48.7643 61.052 50.441 64.1043ZM75.1538 62.0525C73.2083 64.1213 70.7518 65.1572 67.7466 65.1572C64.7424 65.1572 62.2865 64.1219 60.3413 62.0546C58.4438 59.99 57.4758 57.2601 57.4758 53.8165C57.4758 50.373 58.4438 47.6431 60.3412 45.5785C62.2865 43.5111 64.7424 42.4759 67.7466 42.4759C70.7518 42.4759 73.2083 43.5118 75.1538 45.5805C77.096 47.6457 78.0855 50.3748 78.0855 53.8165C78.0855 57.2582 77.096 59.9873 75.1538 62.0525Z" fill="white"/>
<path fill-rule="evenodd" clip-rule="evenodd" d="M105.633 64.1043L105.637 64.1121C107.36 67.1149 109.738 69.467 112.764 71.1618C115.792 72.858 119.187 73.7018 122.938 73.7018C126.734 73.7018 130.152 72.8585 133.181 71.1618C136.208 69.4665 138.564 67.1133 140.242 64.1082C141.965 61.0554 142.822 57.6208 142.822 53.8165C142.822 50.013 141.965 46.6012 140.241 43.5942C138.563 40.5899 136.207 38.237 133.181 36.542C130.152 34.8454 126.734 34.002 122.938 34.002C119.187 34.002 115.792 34.8459 112.764 36.542C109.738 38.2369 107.36 40.589 105.637 43.5918L105.634 43.5967C103.956 46.6034 103.123 50.0142 103.123 53.8165C103.123 57.6189 103.956 61.052 105.633 64.1043ZM130.346 62.0525C128.4 64.1213 125.944 65.1572 122.938 65.1572C119.934 65.1572 117.478 64.1219 115.533 62.0546C113.636 59.99 112.668 57.2601 112.668 53.8165C112.668 50.373 113.636 47.6431 115.533 45.5785C117.478 43.5111 119.934 42.4759 122.938 42.4759C125.944 42.4759 128.4 43.5118 130.346 45.5805C132.288 47.6457 133.277 50.3748 133.277 53.8165C133.277 57.2582 132.288 59.9873 130.346 62.0525Z" fill="white"/>
<path d="M157.659 35.749C156.646 36.4506 155.947 37.3841 155.272 38.5633V34.0018H145.727V73.7017H155.705V54.6407C155.705 50.8126 155.713 48.6722 157.737 45.9072C158.424 44.9689 159.027 44.3805 159.736 43.993C160.447 43.6041 161.31 43.3935 162.559 43.2885L162.904 43.2596L165.241 33.9554L164.574 34.0031C161.172 34.2461 159.122 34.7351 157.659 35.749Z" fill="white"/>
<path d="M181.58 73.2177C178.512 73.2177 175.514 72.8164 172.587 72.014C169.661 71.2115 167.324 70.1966 165.577 68.9693L168.976 62.2426C170.676 63.3755 172.705 64.296 175.066 65.0041C177.473 65.6649 179.833 65.9954 182.146 65.9954C187.433 65.9954 190.077 64.6028 190.077 61.8177C190.077 60.496 189.392 59.5755 188.023 59.0563C186.702 58.537 184.554 58.0413 181.58 57.5693C178.464 57.0973 175.915 56.5544 173.933 55.9407C171.997 55.3271 170.298 54.265 168.835 52.7544C167.418 51.1967 166.71 49.0488 166.71 46.311C166.71 42.7234 168.197 39.8675 171.171 37.7433C174.192 35.5719 178.252 34.4862 183.35 34.4862C185.946 34.4862 188.543 34.793 191.139 35.4067C193.735 35.9731 195.859 36.752 197.512 37.7433L194.113 44.47C190.903 42.5818 187.292 41.6377 183.279 41.6377C180.683 41.6377 178.7 42.0389 177.331 42.8414C176.01 43.5967 175.349 44.6116 175.349 45.8861C175.349 47.3023 176.057 48.3172 177.473 48.9308C178.936 49.4973 181.179 50.0401 184.2 50.5594C187.221 51.0314 189.699 51.5743 191.635 52.188C193.57 52.8016 195.222 53.8401 196.591 55.3035C198.007 56.7668 198.715 58.8438 198.715 61.5345C198.715 65.0749 197.181 67.9072 194.113 70.0314C191.044 72.1556 186.867 73.2177 181.58 73.2177Z" fill="white"/>
<path fill-rule="evenodd" clip-rule="evenodd" d="M164.957 69.1246L168.79 61.5368L169.245 61.8397C170.896 62.9404 172.878 63.8419 175.199 64.5387C177.566 65.188 179.882 65.5112 182.146 65.5112C184.763 65.5112 186.651 65.1639 187.869 64.5226C188.47 64.2057 188.895 63.8236 189.172 63.3866C189.447 62.9513 189.593 62.4343 189.593 61.8177C189.593 61.2445 189.446 60.7894 189.175 60.425C188.901 60.0569 188.473 59.7447 187.852 59.5089L187.846 59.5069C186.577 59.0082 184.474 58.5189 181.506 58.0477C178.378 57.5738 175.804 57.0266 173.79 56.4032L173.786 56.4022C171.772 55.7635 170.004 54.6573 168.487 53.0913L168.482 53.0858L168.476 53.0801C166.957 51.4091 166.226 49.1321 166.226 46.311C166.226 42.5638 167.791 39.5628 170.889 37.3497C174.018 35.1011 178.188 34.002 183.35 34.002C185.984 34.002 188.616 34.3131 191.246 34.9345C193.874 35.5082 196.051 36.3022 197.761 37.3281L198.147 37.5598L194.312 45.1489L193.867 44.8873C190.738 43.0462 187.212 42.1218 183.279 42.1218C180.72 42.1218 178.838 42.5196 177.576 43.2591L177.572 43.2618C176.366 43.9507 175.833 44.8219 175.833 45.8861C175.833 46.5099 175.988 47.0175 176.277 47.4324C176.567 47.8481 177.016 48.2035 177.657 48.4828C179.074 49.0299 181.273 49.565 184.278 50.0816C187.311 50.5556 189.814 51.1029 191.781 51.7265C193.793 52.3644 195.516 53.4465 196.942 54.9697C198.469 56.5492 199.199 58.7615 199.199 61.5345C199.199 65.2437 197.579 68.2206 194.388 70.4294C191.212 72.6286 186.926 73.7018 181.58 73.7018C178.469 73.7018 175.428 73.2949 172.459 72.4809C169.5 71.6693 167.106 70.6352 165.299 69.3654L164.957 69.1246ZM184.2 50.5594C181.179 50.0401 178.936 49.4973 177.473 48.9308C176.057 48.3172 175.349 47.3023 175.349 45.8861C175.349 44.6116 176.01 43.5967 177.331 42.8414C178.7 42.0389 180.683 41.6377 183.279 41.6377C187.117 41.6377 190.588 42.5015 193.692 44.2292C193.833 44.3076 193.973 44.3879 194.113 44.47L197.512 37.7433C195.859 36.752 193.735 35.9731 191.139 35.4067C188.543 34.793 185.946 34.4862 183.35 34.4862C178.252 34.4862 174.192 35.5719 171.171 37.7433C168.197 39.8675 166.71 42.7234 166.71 46.311C166.71 49.0488 167.418 51.1967 168.835 52.7544C170.298 54.265 171.997 55.3271 173.933 55.9407C175.915 56.5544 178.464 57.0973 181.58 57.5693C184.554 58.0413 186.702 58.537 188.023 59.0563C189.392 59.5755 190.077 60.496 190.077 61.8177C190.077 64.6028 187.433 65.9954 182.146 65.9954C179.833 65.9954 177.473 65.6649 175.066 65.0041C172.892 64.3519 170.998 63.5196 169.385 62.507C169.247 62.4202 169.11 62.3321 168.976 62.2426L165.577 68.9693C167.324 70.1966 169.661 71.2115 172.587 72.014C175.514 72.8164 178.512 73.2177 181.58 73.2177C186.867 73.2177 191.044 72.1556 194.113 70.0314C197.181 67.9072 198.715 65.0749 198.715 61.5345C198.715 58.8438 198.007 56.7668 196.591 55.3035C195.222 53.8401 193.57 52.8016 191.635 52.188C189.699 51.5743 187.221 51.0314 184.2 50.5594Z" fill="white"/>
</svg>
