<svg width="30" height="30" viewBox="0 0 30 30" fill="none" xmlns="http://www.w3.org/2000/svg">
<circle cx="15" cy="15" r="15" fill="#0AAFD1"/>
<path d="M14.5397 8.87717C14.9963 9.8231 15.6668 11.0926 16.3377 12.4306L13.7865 17.7332H10.854L9.97885 19.555C9.86666 19.78 9.7769 19.943 9.70958 20.0442C9.65348 20.1454 9.5525 20.2523 9.40665 20.3647C9.27201 20.466 9.09249 20.5166 8.8681 20.5166C8.65492 20.5166 8.35759 20.421 7.97612 20.2298C7.32537 19.9149 7 19.555 7 19.1502C7 18.959 7.09537 18.6722 7.2861 18.2899L11.8301 8.8603C11.9535 8.60165 12.1387 8.3936 12.3855 8.23616C12.6436 8.07872 12.9128 8 13.1933 8C13.7992 8 14.248 8.29239 14.5397 8.87717ZM13.1765 12.9257L12.0657 15.2367H14.3041L13.1765 12.9257Z" fill="white"/>
<path d="M20.0952 11.6999L23.7687 19.21C23.9229 19.515 24 19.7438 24 19.8964C24 20.2194 23.737 20.511 23.2109 20.7712C22.9025 20.9237 22.6576 21 22.4762 21C22.3039 21 22.1587 20.9596 22.0408 20.8789C21.932 20.7981 21.8503 20.7129 21.7959 20.6231C21.7506 20.5334 21.6825 20.3988 21.5918 20.2194L20.8844 18.7658H17.1156L16.4082 20.2194C16.3175 20.3988 16.2449 20.5289 16.1905 20.6097C16.1451 20.6904 16.0635 20.7757 15.9456 20.8654C15.8367 20.9462 15.6916 20.9865 15.5102 20.9865C15.3379 20.9865 15.0975 20.9103 14.7891 20.7577C14.263 20.5065 14 20.2194 14 19.8964C14 19.7438 14.0771 19.515 14.2313 19.21L17.9048 11.6864C18.0045 11.48 18.1542 11.314 18.3537 11.1884C18.5624 11.0628 18.78 11 19.0068 11C19.4966 11 19.8594 11.2333 20.0952 11.6999ZM18.9932 14.93L18.0952 16.7739H19.9048L18.9932 14.93Z" fill="white"/>
</svg>
