<svg width="30" height="30" viewBox="0 0 30 30" fill="none" xmlns="http://www.w3.org/2000/svg">
<circle cx="15" cy="15" r="15" fill="#FB3333"/>
<path d="M22.325 13.1161L16.9083 7.49108C16.7316 7.30783 16.4607 7.2503 16.225 7.34521C15.9883 7.44103 15.8333 7.67022 15.8333 7.9252V10.6336H15.625C11.145 10.6336 7.5 14.2787 7.5 18.7587V20.0087C7.5 20.2986 7.70416 20.5403 7.9866 20.6062C8.03253 20.6178 8.07831 20.6228 8.12409 20.6228C8.35999 20.6228 8.58582 20.4844 8.69492 20.267C9.86664 17.9228 12.2225 16.4669 14.8433 16.4669H15.8333V19.1752C15.8333 19.4304 15.9883 19.6595 16.225 19.7544C16.4592 19.8503 16.7316 19.792 16.9083 19.6086L22.325 13.9836C22.5583 13.7411 22.5583 13.3595 22.325 13.1161Z" fill="white"/>
</svg>
